HIERARCHY
ROOT root
{
	OFFSET	0	13.1	24.9
	CHANNELS 6  Xposition Yposition Zposition Xrotation Yrotation Zrotation
	JOINT spine_1
	{
		OFFSET	0	9.99999	0
		CHANNELS 3  Xrotation Yrotation Zrotation
		JOINT spine_2
		{
			OFFSET	0	112	-10
			CHANNELS 3  Xrotation Yrotation Zrotation
			JOINT spine_3
			{
				OFFSET	0	206.5	19.3
				CHANNELS 3  Xrotation Yrotation Zrotation
				JOINT spine_4
				{
					OFFSET	0	110.4	14.6
					CHANNELS 3  Xrotation Yrotation Zrotation
					JOINT neck_1
					{
						OFFSET	0	71.8	-50.3
						CHANNELS 3  Xrotation Yrotation Zrotation
						JOINT neck_2
						{
							OFFSET	0	86.2	-25.8
							CHANNELS 3  Xrotation Yrotation Zrotation
							JOINT head_ee
							{
								OFFSET	0	179.8	-8.7
								CHANNELS 3  Xrotation Yrotation Zrotation
								End Site
								{
									OFFSET	1	0	0
								}
							}
						}
					}
					JOINT left_clavicle
					{
						OFFSET	-43.2	22.4	-70.8
						CHANNELS 3  Xrotation Yrotation Zrotation
						JOINT left_shoulder
						{
							OFFSET	-93.9	-5.79999	48.7
							CHANNELS 3  Xrotation Yrotation Zrotation
							JOINT left_elbow
							{
								OFFSET	-291.4	-30.8	15.2
								CHANNELS 3  Xrotation Yrotation Zrotation
								JOINT left_lowarm_twist
								{
									OFFSET	-110.7	-3.89999	13.6
									CHANNELS 3  Xrotation Yrotation Zrotation
									JOINT left_hand
									{
										OFFSET	-110.7	-3.89999	13.6
										CHANNELS 3  Xrotation Yrotation Zrotation
										JOINT left_ee
										{
											OFFSET	-80.8	-5.10001	12.1
											CHANNELS 3  Xrotation Yrotation Zrotation
											End Site
											{
												OFFSET	1	0	0
											}
										}
									}
								}
							}
						}
					}
					JOINT right_clavicle
					{
						OFFSET	43.2	22.4	-70.8
						CHANNELS 3  Xrotation Yrotation Zrotation
						JOINT right_shoulder
						{
							OFFSET	93.9	-5.79999	48.7
							CHANNELS 3  Xrotation Yrotation Zrotation
							JOINT right_elbow
							{
								OFFSET	291.4	-30.8	15.2
								CHANNELS 3  Xrotation Yrotation Zrotation
								JOINT right_lowarm_twist
								{
									OFFSET	110.7	-3.89999	13.6
									CHANNELS 3  Xrotation Yrotation Zrotation
									JOINT right_hand
									{
										OFFSET	110.7	-3.89999	13.6
										CHANNELS 3  Xrotation Yrotation Zrotation
										JOINT right_ee
										{
											OFFSET	80.8	-5.10001	12.1
											CHANNELS 3  Xrotation Yrotation Zrotation
											End Site
											{
												OFFSET	1	0	0
											}
										}
									}
								}
							}
						}
					}
				}
			}
		}
	}
	JOINT left_hip
	{
		OFFSET	-82.8	-127.5	0.300001
		CHANNELS 3  Xrotation Yrotation Zrotation
		JOINT left_knee
		{
			OFFSET	-28.2	-396.7	2.2
			CHANNELS 3  Xrotation Yrotation Zrotation
			JOINT left_ankle
			{
				OFFSET	-11.7	-411.3	35.4
				CHANNELS 3  Xrotation Yrotation Zrotation
				JOINT left_toes
				{
					OFFSET	0	-60	-88.6
					CHANNELS 3  Xrotation Yrotation Zrotation
					JOINT left_foot_ee
					{
						OFFSET	-22.5	-16.5	-42.2
						CHANNELS 3  Xrotation Yrotation Zrotation
						End Site
						{
							OFFSET	1	0	0
						}
					}
				}
			}
		}
	}
	JOINT right_hip
	{
		OFFSET	82.8	-127.5	0.300001
		CHANNELS 3  Xrotation Yrotation Zrotation
		JOINT right_knee
		{
			OFFSET	28.2	-396.7	2.2
			CHANNELS 3  Xrotation Yrotation Zrotation
			JOINT right_ankle
			{
				OFFSET	11.7	-411.3	35.4
				CHANNELS 3  Xrotation Yrotation Zrotation
				JOINT right_toes
				{
					OFFSET	0	-60	-88.6
					CHANNELS 3  Xrotation Yrotation Zrotation
					JOINT right_foot_ee
					{
						OFFSET	22.5	-16.5	-42.2
						CHANNELS 3  Xrotation Yrotation Zrotation
						End Site
						{
							OFFSET	1	0	0
						}
					}
				}
			}
		}
	}
}
MOTION
Frames: 13
Frame Time: 0.02
1041.4 574.639 -1682.42 -9.06965955469 46.9996225147 15.6373735301 1.97079 -0.280528 -1.09905 1.97144 -0.210028 -1.11467 1.97555 -0.0101809 -1.13424 1.97381 -0.189174 -1.1184 8.70021 -12.6856 -2.78046 9.17085 -18.5731 -3.45224 -0.0 0.0 -0.0 6.42876 3.39586 12.4713 -36.0806 -26.6142 57.4056 1.05153 -27.5141 0.257451 11.325 0.259308 -1.42108 4.11703 -16.7927 20.7736 -0.0 0.0 -0.0 10.8023 0.205403 -21.3354 -21.4264 29.1027 -41.5581 1.15341 29.7412 -0.306276 -6.69425 0.283404 -0.806992 -2.31467 28.2198 27.4862 0.0 0.0 0.0 40.3934 -36.2668 2.16486 -19.1471 0.304812 2.90882 -6.76557 20.1978 1.02456 28.4928 -0.0 -0.0 -0.0 0.0 -0.0 -0.824401 17.9024 -19.2096 -8.70174 -0.259284 -1.309 40.9198 -13.7327 4.99591 32.2002 -0.0 -0.0 0.0 0.0 0.0 
1041.4 574.639 -1682.42 -9.17104713075 47.5825742508 15.7753498076 1.97079 -0.280528 -1.09905 1.97144 -0.210028 -1.11467 1.97555 -0.0101809 -1.13424 1.97381 -0.189174 -1.1184 8.70021 -12.6856 -2.78046 9.17085 -18.5731 -3.45224 -0.0 0.0 -0.0 6.42876 3.39586 12.4713 -36.0806 -26.6142 57.4056 1.05153 -27.5141 0.257451 11.325 0.259308 -1.42108 4.11703 -16.7927 20.7736 -0.0 0.0 -0.0 10.8023 0.205403 -21.3354 -21.4264 29.1027 -41.5581 1.15341 29.7412 -0.306276 -6.69425 0.283404 -0.806992 -2.31467 28.2198 27.4862 0.0 0.0 0.0 40.3934 -36.2668 2.16486 -19.1471 0.304812 2.90882 -6.76557 20.1978 1.02456 28.4928 -0.0 -0.0 -0.0 0.0 -0.0 -0.824401 17.9024 -19.2096 -8.70174 -0.259284 -1.309 40.9198 -13.7327 4.99591 32.2002 -0.0 -0.0 0.0 0.0 0.0 
1041.4 574.639 -1682.42 -9.32255818299 48.42046718 15.9792176199 1.97079 -0.280528 -1.09905 1.97144 -0.210028 -1.11467 1.97555 -0.0101809 -1.13424 1.97381 -0.189174 -1.1184 8.70021 -12.6856 -2.78046 9.17085 -18.5731 -3.45224 -0.0 0.0 -0.0 6.42876 3.39586 12.4713 -36.0806 -26.6142 57.4056 1.05153 -27.5141 0.257451 11.325 0.259308 -1.42108 4.11703 -16.7927 20.7736 -0.0 0.0 -0.0 10.8023 0.205403 -21.3354 -21.4264 29.1027 -41.5581 1.15341 29.7412 -0.306276 -6.69425 0.283404 -0.806992 -2.31467 28.2198 27.4862 0.0 0.0 0.0 40.3934 -36.2668 2.16486 -19.1471 0.304812 2.90882 -6.76557 20.1978 1.02456 28.4928 -0.0 -0.0 -0.0 0.0 -0.0 -0.824401 17.9024 -19.2096 -8.70174 -0.259284 -1.309 40.9198 -13.7327 4.99591 32.2002 -0.0 -0.0 0.0 0.0 0.0 
1041.4 574.639 -1682.42 -9.36450807497 48.6457719894 16.0352000667 1.97079 -0.280528 -1.09905 1.97144 -0.210028 -1.11467 1.97555 -0.0101809 -1.13424 1.97381 -0.189174 -1.1184 8.70021 -12.6856 -2.78046 9.17085 -18.5731 -3.45224 -0.0 0.0 -0.0 6.42876 3.39586 12.4713 -36.0806 -26.6142 57.4056 1.05153 -27.5141 0.257451 11.325 0.259308 -1.42108 4.11703 -16.7927 20.7736 -0.0 0.0 -0.0 10.8023 0.205403 -21.3354 -21.4264 29.1027 -41.5581 1.15341 29.7412 -0.306276 -6.69425 0.283404 -0.806992 -2.31467 28.2198 27.4862 0.0 0.0 0.0 40.3934 -36.2668 2.16486 -19.1471 0.304812 2.90882 -6.76557 20.1978 1.02456 28.4928 -0.0 -0.0 -0.0 0.0 -0.0 -0.824401 17.9024 -19.2096 -8.70174 -0.259284 -1.309 40.9198 -13.7327 4.99591 32.2002 -0.0 -0.0 0.0 0.0 0.0 
1041.4 574.639 -1682.42 -9.49648675843 49.3367068763 16.2100935478 1.97079 -0.280528 -1.09905 1.97144 -0.210028 -1.11467 1.97555 -0.0101809 -1.13424 1.97381 -0.189174 -1.1184 8.70021 -12.6856 -2.78046 9.17085 -18.5731 -3.45224 -0.0 0.0 -0.0 6.42876 3.39586 12.4713 -36.0806 -26.6142 57.4056 1.05153 -27.5141 0.257451 11.325 0.259308 -1.42108 4.11703 -16.7927 20.7736 -0.0 0.0 -0.0 10.8023 0.205403 -21.3354 -21.4264 29.1027 -41.5581 1.15341 29.7412 -0.306276 -6.69425 0.283404 -0.806992 -2.31467 28.2198 27.4862 0.0 0.0 0.0 40.3934 -36.2668 2.16486 -19.1471 0.304812 2.90882 -6.76557 20.1978 1.02456 28.4928 -0.0 -0.0 -0.0 0.0 -0.0 -0.824401 17.9024 -19.2096 -8.70174 -0.259284 -1.309 40.9198 -13.7327 4.99591 32.2002 -0.0 -0.0 0.0 0.0 0.0 
1041.4 574.639 -1682.42 -9.61966011086 49.9582118251 16.3717200583 1.97079 -0.280528 -1.09905 1.97144 -0.210028 -1.11467 1.97555 -0.0101809 -1.13424 1.97381 -0.189174 -1.1184 8.70021 -12.6856 -2.78046 9.17085 -18.5731 -3.45224 -0.0 0.0 -0.0 6.42876 3.39586 12.4713 -36.0806 -26.6142 57.4056 1.05153 -27.5141 0.257451 11.325 0.259308 -1.42108 4.11703 -16.7927 20.7736 -0.0 0.0 -0.0 10.8023 0.205403 -21.3354 -21.4264 29.1027 -41.5581 1.15341 29.7412 -0.306276 -6.69425 0.283404 -0.806992 -2.31467 28.2198 27.4862 0.0 0.0 0.0 40.3934 -36.2668 2.16486 -19.1471 0.304812 2.90882 -6.76557 20.1978 1.02456 28.4928 -0.0 -0.0 -0.0 0.0 -0.0 -0.824401 17.9024 -19.2096 -8.70174 -0.259284 -1.309 40.9198 -13.7327 4.99591 32.2002 -0.0 -0.0 0.0 0.0 0.0 
1041.4 574.639 -1682.42 -9.80674075653 50.8620360383 16.6144769166 1.97079 -0.280528 -1.09905 1.97144 -0.210028 -1.11467 1.97555 -0.0101809 -1.13424 1.97381 -0.189174 -1.1184 8.70021 -12.6856 -2.78046 9.17085 -18.5731 -3.45224 -0.0 0.0 -0.0 6.42876 3.39586 12.4713 -36.0806 -26.6142 57.4056 1.05153 -27.5141 0.257451 11.325 0.259308 -1.42108 4.11703 -16.7927 20.7736 -0.0 0.0 -0.0 10.8023 0.205403 -21.3354 -21.4264 29.1027 -41.5581 1.15341 29.7412 -0.306276 -6.69425 0.283404 -0.806992 -2.31467 28.2198 27.4862 0.0 0.0 0.0 40.3934 -36.2668 2.16486 -19.1471 0.304812 2.90882 -6.76557 20.1978 1.02456 28.4928 -0.0 -0.0 -0.0 0.0 -0.0 -0.824401 17.9024 -19.2096 -8.70174 -0.259284 -1.309 40.9198 -13.7327 4.99591 32.2002 -0.0 -0.0 0.0 0.0 0.0 
1013.79576186 597.014 -1700.51284479 -10.7062883584 53.1476913119 17.8740660083 1.71632 -0.261613 -1.00424 1.71685 -0.197184 -1.01885 1.72043 -0.00981372 -1.0377 1.71896 -0.173568 -1.02313 9.37016 -13.785 -2.48039 9.98113 -20.527 -3.02489 -0.0 0.0 -0.0 7.56813 4.19021 14.6426 -36.2345 -26.5981 57.4837 0.738285 -20.0887 0.130771 10.987 0.255661 -1.37807 4.01154 -16.7073 20.0717 -0.0 0.0 -0.0 10.5009 0.00820391 -20.6941 -20.6891 29.0859 -45.5774 1.06422 27.7968 -0.263343 -5.06636 0.205822 -0.613839 -2.27629 28.1384 27.1881 0.0 0.0 0.0 38.2801 -35.9963 2.07047 -18.5696 0.309919 2.82035 -7.76349 18.993 1.17271 27.707 -0.0 -0.0 -0.0 0.0 -0.0 -0.20605 15.6898 -19.5975 -8.68168 -0.258916 -1.30594 40.7688 -13.5864 4.98076 32.2152 -0.0 -0.0 0.0 0.0 0.0 
1002.19547638 603.168 -1705.64198115 -11.1710164951 55.1297901909 18.5452130272 1.6461 -0.307171 -1.14228 1.64679 -0.233867 -1.15951 1.65163 -0.0190571 -1.1827 1.64974 -0.205591 -1.16486 10.0828 -14.6017 -2.20708 10.8227 -21.9588 -2.6119 -0.0 0.0 -0.0 8.02348 4.31122 15.5157 -36.5681 -26.4683 56.7039 0.567304 -15.6969 0.0782005 10.7559 0.253021 -1.34867 3.94843 -16.6906 19.635 -0.0 0.0 -0.0 10.3439 -0.165684 -20.358 -20.6141 28.8034 -46.6924 1.00343 26.4301 -0.235636 -3.899 0.153589 -0.47403 -2.25753 28.0211 27.0162 0.0 0.0 0.0 36.5013 -35.973 1.55997 -18.1325 0.313191 2.75337 -8.46534 18.2556 1.27716 27.1004 -0.0 -0.0 -0.0 0.0 -0.0 0.230561 14.6048 -19.6346 -9.39178 -0.271285 -1.41421 40.7159 -13.4873 4.97483 32.2272 -0.0 -0.0 0.0 0.0 0.0 
1001.59408971 603.168 -1704.59531482 -11.6134515541 56.6178259138 19.0796351477 1.6461 -0.307171 -1.14228 1.64679 -0.233867 -1.15951 1.65163 -0.0190571 -1.1827 1.64974 -0.205591 -1.16486 10.0828 -14.6017 -2.20708 10.8227 -21.9588 -2.6119 -0.0 0.0 -0.0 8.02348 4.31122 15.5157 -36.5681 -26.4683 56.7039 0.567304 -15.6969 0.0782005 10.7559 0.253021 -1.34867 3.94843 -16.6906 19.635 -0.0 0.0 -0.0 10.3439 -0.165684 -20.358 -20.6141 28.8034 -46.6924 1.00343 26.4301 -0.235636 -3.899 0.153589 -0.47403 -2.25753 28.0211 27.0162 0.0 0.0 0.0 36.5013 -35.973 1.55997 -18.1325 0.313191 2.75337 -8.46534 18.2556 1.27716 27.1004 -0.0 -0.0 -0.0 0.0 -0.0 0.230561 14.6048 -19.6346 -9.39178 -0.271285 -1.41421 40.7159 -13.4873 4.97483 32.2272 -0.0 -0.0 0.0 0.0 0.0 
954.902468389 613.338 -1730.94176075 -11.9080888357 61.1100815946 19.7323291513 1.50605 -0.28666 -1.47999 1.50724 -0.191914 -1.49523 1.51242 0.0869399 -1.50498 1.50929 -0.151808 -1.49983 10.5991 -16.3123 -2.56907 11.5367 -24.3138 -2.95352 -0.0 0.0 -0.0 8.53848 3.21064 16.5628 -37.1382 -26.0805 54.8255 0.348603 -9.79786 0.0298794 11.9356 0.265255 -1.49885 3.82742 -14.652 19.8224 -0.0 0.0 -0.0 10.4622 -0.264709 -20.598 -25.2543 26.6931 -51.7773 0.681723 18.6602 -0.112005 -0.569812 0.020425 -0.0699027 -1.31035 27.9485 20.4731 0.0 0.0 0.0 29.2777 -36.3486 -0.422081 -14.3211 0.320052 2.16874 -8.77322 11.0499 1.30682 24.7832 -0.0 -0.0 -0.0 0.0 -0.0 5.54156 11.1528 -19.5893 -22.6274 -0.255186 -3.44046 38.3809 -14.5052 4.77769 32.1538 -0.0 -0.0 0.0 0.0 0.0 
953.593999862 613.338 -1728.53171848 -12.5358672633 62.6585221238 20.4440308531 1.50605 -0.28666 -1.47999 1.50724 -0.191914 -1.49523 1.51242 0.0869399 -1.50498 1.50929 -0.151808 -1.49983 10.5991 -16.3123 -2.56907 11.5367 -24.3138 -2.95352 -0.0 0.0 -0.0 8.53848 3.21064 16.5628 -37.1382 -26.0805 54.8255 0.348603 -9.79786 0.0298794 11.9356 0.265255 -1.49885 3.82742 -14.652 19.8224 -0.0 0.0 -0.0 10.4622 -0.264709 -20.598 -25.2543 26.6931 -51.7773 0.681723 18.6602 -0.112005 -0.569812 0.020425 -0.0699027 -1.31035 27.9485 20.4731 0.0 0.0 0.0 29.2777 -36.3486 -0.422081 -14.3211 0.320052 2.16874 -8.77322 11.0499 1.30682 24.7832 -0.0 -0.0 -0.0 0.0 -0.0 5.54156 11.1528 -19.5893 -22.6274 -0.255186 -3.44046 38.3809 -14.5052 4.77769 32.1538 -0.0 -0.0 0.0 0.0 0.0 
951.898558728 613.338 -1725.14793291 -13.5349603164 64.7889009613 21.5580578179 1.50605 -0.28666 -1.47999 1.50724 -0.191914 -1.49523 1.51242 0.0869399 -1.50498 1.50929 -0.151808 -1.49983 10.5991 -16.3123 -2.56907 11.5367 -24.3138 -2.95352 -0.0 0.0 -0.0 8.53848 3.21064 16.5628 -37.1382 -26.0805 54.8255 0.348603 -9.79786 0.0298794 11.9356 0.265255 -1.49885 3.82742 -14.652 19.8224 -0.0 0.0 -0.0 10.4622 -0.264709 -20.598 -25.2543 26.6931 -51.7773 0.681723 18.6602 -0.112005 -0.569812 0.020425 -0.0699027 -1.31035 27.9485 20.4731 0.0 0.0 0.0 29.2777 -36.3486 -0.422081 -14.3211 0.320052 2.16874 -8.77322 11.0499 1.30682 24.7832 -0.0 -0.0 -0.0 0.0 -0.0 5.54156 11.1528 -19.5893 -22.6274 -0.255186 -3.44046 38.3809 -14.5052 4.77769 32.1538 -0.0 -0.0 0.0 0.0 0.0 
